<?xml version="1.0" encoding="UTF-8"?>
<svg xmlns="http://www.w3.org/2000/svg" xmlns:xlink="http://www.w3.org/1999/xlink" width="180.9pt" height="130.8pt" viewBox="0 0 180.9 130.8" version="1.1">
<defs>
<clipPath id="clip1">
  <path d="M 163 83 L 180.898438 83 L 180.898438 104 L 163 104 Z M 163 83 "/>
</clipPath>
<clipPath id="clip2">
  <path d="M 118 111 L 135 111 L 135 130.800781 L 118 130.800781 Z M 118 111 "/>
</clipPath>
<clipPath id="clip3">
  <path d="M 29 110 L 45 110 L 45 130.800781 L 29 130.800781 Z M 29 110 "/>
</clipPath>
<clipPath id="clip4">
  <path d="M 47 111 L 62 111 L 62 130.800781 L 47 130.800781 Z M 47 111 "/>
</clipPath>
<clipPath id="clip5">
  <path d="M 62 110 L 80 110 L 80 130.800781 L 62 130.800781 Z M 62 110 "/>
</clipPath>
<clipPath id="clip6">
  <path d="M 82 111 L 99 111 L 99 130.800781 L 82 130.800781 Z M 82 111 "/>
</clipPath>
<clipPath id="clip7">
  <path d="M 101 110 L 116 110 L 116 130.800781 L 101 130.800781 Z M 101 110 "/>
</clipPath>
<clipPath id="clip8">
  <path d="M 134 110 L 152 110 L 152 130.800781 L 134 130.800781 Z M 134 110 "/>
</clipPath>
</defs>
<g id="surface1">
<path style=" stroke:none;fill-rule:evenodd;fill:rgb(0%,19.993591%,34.104919%);fill-opacity:1;" d="M 158.671875 103.414063 L 163.507813 103.414063 L 155.585938 92.863281 L 162.902344 83.972656 L 158.246094 83.972656 L 152.648438 91.414063 L 151.519531 91.414063 L 151.519531 83.972656 L 147.976563 83.972656 L 147.976563 103.414063 L 151.519531 103.414063 L 151.519531 94.832031 L 152.777344 94.832031 Z M 158.671875 103.414063 "/>
<path style=" stroke:none;fill-rule:evenodd;fill:rgb(0%,19.993591%,34.104919%);fill-opacity:1;" d="M 6.546875 83.972656 C 7.40625 83.972656 8.195313 84.085938 8.921875 84.300781 C 9.644531 84.523438 10.269531 84.855469 10.792969 85.289063 C 11.316406 85.730469 11.730469 86.273438 12.023438 86.917969 C 12.316406 87.566406 12.464844 88.320313 12.464844 89.179688 L 12.464844 91.378906 C 12.464844 92.179688 12.308594 92.882813 11.992188 93.492188 C 11.679688 94.105469 11.257813 94.613281 10.722656 95.023438 C 10.1875 95.4375 9.566406 95.746094 8.863281 95.953125 C 8.15625 96.160156 7.40625 96.269531 6.605469 96.269531 L 3.605469 96.269531 L 3.605469 103.414063 L 0.0585938 103.414063 L 0.0585938 83.972656 Z M 8.921875 89.179688 C 8.921875 88.515625 8.691406 88 8.234375 87.652344 C 7.777344 87.296875 7.214844 87.117188 6.546875 87.117188 L 3.605469 87.117188 L 3.605469 93.125 L 6.546875 93.125 C 7.15625 93.125 7.707031 92.988281 8.191406 92.722656 C 8.679688 92.457031 8.921875 92.007813 8.921875 91.378906 Z M 8.921875 89.179688 "/>
<path style=" stroke:none;fill-rule:evenodd;fill:rgb(0%,19.993591%,34.104919%);fill-opacity:1;" d="M 25.667969 84.117188 C 26.585938 84.402344 27.394531 84.816406 28.097656 85.363281 C 28.800781 85.90625 29.371094 86.5625 29.796875 87.332031 C 30.226563 88.105469 30.441406 88.988281 30.441406 89.980469 L 30.441406 97.386719 C 30.441406 98.410156 30.234375 99.324219 29.832031 100.113281 C 29.414063 100.90625 28.863281 101.570313 28.171875 102.101563 C 27.472656 102.632813 26.664063 103.035156 25.742188 103.300781 C 24.816406 103.566406 23.839844 103.703125 22.808594 103.703125 L 22.378906 103.703125 C 21.332031 103.703125 20.339844 103.566406 19.40625 103.300781 C 18.46875 103.035156 17.660156 102.640625 16.964844 102.113281 C 16.265625 101.59375 15.714844 100.933594 15.304688 100.140625 C 14.894531 99.351563 14.691406 98.433594 14.691406 97.386719 L 14.691406 89.980469 C 14.691406 88.96875 14.898438 88.078125 15.320313 87.304688 C 15.734375 86.535156 16.296875 85.878906 17.007813 85.332031 C 17.714844 84.789063 18.523438 84.382813 19.453125 84.101563 C 20.378906 83.828125 21.339844 83.6875 22.351563 83.6875 L 22.808594 83.6875 C 23.796875 83.6875 24.753906 83.832031 25.667969 84.117188 Z M 26.894531 90.011719 C 26.894531 89.492188 26.777344 89.039063 26.539063 88.652344 C 26.300781 88.257813 25.992188 87.929688 25.609375 87.664063 C 25.230469 87.398438 24.792969 87.191406 24.308594 87.050781 C 23.820313 86.90625 23.328125 86.835938 22.808594 86.835938 L 22.351563 86.835938 C 21.839844 86.835938 21.332031 86.902344 20.839844 87.03125 C 20.339844 87.164063 19.898438 87.363281 19.507813 87.636719 C 19.117188 87.898438 18.804688 88.234375 18.582031 88.625 C 18.347656 89.011719 18.234375 89.464844 18.234375 89.980469 L 18.234375 97.386719 C 18.234375 97.9375 18.347656 98.410156 18.582031 98.8125 C 18.804688 99.210938 19.109375 99.539063 19.492188 99.800781 C 19.871094 100.054688 20.3125 100.246094 20.804688 100.371094 C 21.300781 100.492188 21.832031 100.558594 22.378906 100.558594 L 22.808594 100.558594 C 23.34375 100.558594 23.855469 100.492188 24.355469 100.371094 C 24.847656 100.246094 25.28125 100.050781 25.652344 99.785156 C 26.023438 99.519531 26.328125 99.1875 26.554688 98.785156 C 26.78125 98.386719 26.894531 97.917969 26.894531 97.386719 Z M 26.894531 90.011719 "/>
<path style=" stroke:none;fill-rule:evenodd;fill:rgb(0%,19.993591%,34.104919%);fill-opacity:1;" d="M 36.832031 83.972656 L 36.832031 100.269531 L 44.964844 100.269531 L 44.964844 103.414063 L 33.28125 103.414063 L 33.28125 83.972656 Z M 36.832031 83.972656 "/>
<path style=" stroke:none;fill-rule:evenodd;fill:rgb(0%,19.993591%,34.104919%);fill-opacity:1;" d="M 47.507813 103.414063 L 51.054688 103.414063 L 51.054688 83.972656 L 47.507813 83.972656 Z M 47.507813 103.414063 "/>
<path style=" stroke:none;fill-rule:evenodd;fill:rgb(0%,19.993591%,34.104919%);fill-opacity:1;" d="M 53.550781 87.117188 L 53.550781 83.972656 L 68.648438 83.972656 L 68.648438 87.148438 L 62.84375 87.148438 L 62.84375 103.414063 L 59.296875 103.414063 L 59.296875 87.148438 Z M 53.550781 87.117188 "/>
<path style=" stroke:none;fill-rule:evenodd;fill:rgb(0%,19.993591%,34.104919%);fill-opacity:1;" d="M 74.695313 94.894531 L 74.695313 100.269531 L 82.667969 100.269531 L 82.667969 103.414063 L 71.148438 103.414063 L 71.148438 83.972656 L 82.070313 83.972656 L 82.070313 87.117188 L 74.695313 87.117188 L 74.695313 91.898438 L 80.898438 91.898438 L 80.898438 94.894531 Z M 74.695313 94.894531 "/>
<path style=" stroke:none;fill-rule:evenodd;fill:rgb(0%,19.993591%,34.104919%);fill-opacity:1;" d="M 92.457031 86.832031 C 91.9375 86.832031 91.453125 86.90625 90.980469 87.050781 C 90.515625 87.191406 90.105469 87.398438 89.753906 87.664063 C 89.398438 87.929688 89.128906 88.257813 88.921875 88.652344 C 88.726563 89.039063 88.628906 89.492188 88.628906 90.007813 L 88.628906 97.382813 C 88.628906 98.488281 88.988281 99.292969 89.722656 99.800781 C 90.464844 100.300781 91.378906 100.554688 92.484375 100.554688 C 93.457031 100.554688 94.355469 100.421875 95.183594 100.15625 C 96.015625 99.890625 96.753906 99.46875 97.402344 98.898438 L 98.945313 101.503906 C 97.972656 102.355469 96.964844 102.941406 95.929688 103.246094 C 94.890625 103.546875 93.742188 103.703125 92.484375 103.703125 C 91.433594 103.703125 90.464844 103.566406 89.554688 103.300781 C 88.648438 103.035156 87.867188 102.640625 87.214844 102.117188 C 86.550781 101.59375 86.03125 100.933594 85.652344 100.140625 C 85.269531 99.355469 85.082031 98.433594 85.082031 97.382813 L 85.082031 90.007813 C 85.082031 89.015625 85.273438 88.128906 85.664063 87.351563 C 86.054688 86.570313 86.589844 85.90625 87.253906 85.363281 C 87.917969 84.816406 88.703125 84.402344 89.597656 84.117188 C 90.492188 83.832031 91.441406 83.6875 92.457031 83.6875 C 93.234375 83.6875 93.925781 83.742188 94.527344 83.84375 C 95.128906 83.949219 95.671875 84.117188 96.160156 84.347656 C 96.644531 84.578125 97.097656 84.863281 97.527344 85.203125 C 97.964844 85.546875 98.402344 85.949219 98.859375 86.40625 L 96.914063 88.804688 C 96.308594 88.238281 95.652344 87.761719 94.960938 87.390625 C 94.261719 87.019531 93.425781 86.832031 92.457031 86.832031 Z M 92.457031 86.832031 "/>
<path style=" stroke:none;fill-rule:evenodd;fill:rgb(0%,19.993591%,34.104919%);fill-opacity:1;" d="M 113.089844 83.972656 L 116.632813 83.972656 L 116.632813 103.414063 L 113.089844 103.414063 L 113.089844 95.554688 L 105.113281 95.554688 L 105.113281 103.414063 L 101.566406 103.414063 L 101.566406 83.972656 L 105.113281 83.972656 L 105.113281 92.410156 L 113.089844 92.410156 Z M 113.089844 83.972656 "/>
<path style=" stroke:none;fill-rule:evenodd;fill:rgb(0%,19.993591%,34.104919%);fill-opacity:1;" d="M 133.296875 83.972656 L 136.441406 83.972656 L 136.441406 103.414063 L 131.523438 103.414063 L 123.628906 88.0625 L 123.628906 103.414063 L 120.484375 103.414063 L 120.484375 83.972656 L 125.117188 83.972656 L 133.296875 99.726563 Z M 133.296875 83.972656 "/>
<path style=" stroke:none;fill-rule:evenodd;fill:rgb(0%,19.993591%,34.104919%);fill-opacity:1;" d="M 140.429688 103.414063 L 143.972656 103.414063 L 143.972656 83.972656 L 140.429688 83.972656 Z M 140.429688 103.414063 "/>
<g clip-path="url(#clip1)" clip-rule="nonzero">
<path style=" stroke:none;fill-rule:evenodd;fill:rgb(0%,19.993591%,34.104919%);fill-opacity:1;" d="M 174.734375 83.832031 L 180.964844 103.414063 L 177.253906 103.414063 L 175.90625 98.8125 L 169.128906 98.8125 L 167.757813 103.414063 L 163.984375 103.414063 L 170.414063 83.832031 Z M 175.019531 95.949219 L 172.53125 87.519531 L 170.019531 95.949219 Z M 175.019531 95.949219 "/>
</g>
<path style=" stroke:none;fill-rule:evenodd;fill:rgb(0%,19.993591%,34.104919%);fill-opacity:1;" d="M 42.214844 11.167969 L 38.402344 14.03125 L 40.023438 16.183594 L 43.113281 13.859375 L 46.710938 13.859375 L 47.847656 5.414063 L 39.8125 3.953125 L 39.050781 8.308594 L 41.707031 8.769531 L 41.996094 7.085938 L 44.839844 7.601563 L 44.355469 11.167969 Z M 42.214844 11.167969 "/>
<path style=" stroke:none;fill-rule:evenodd;fill:rgb(0%,19.993591%,34.104919%);fill-opacity:1;" d="M 137.910156 13.859375 L 141.003906 16.183594 L 142.621094 14.03125 L 138.808594 11.167969 L 136.671875 11.167969 L 136.1875 7.601563 L 139.027344 7.085938 L 139.324219 8.769531 L 141.972656 8.308594 L 141.214844 3.953125 L 133.175781 5.414063 L 134.320313 13.859375 Z M 137.910156 13.859375 "/>
<path style=" stroke:none;fill-rule:evenodd;fill:rgb(0%,19.993591%,34.104919%);fill-opacity:1;" d="M 168.089844 29.867188 L 166.476563 32.019531 L 170.769531 35.230469 L 174.488281 30.351563 L 174.488281 28.164063 L 167.046875 22.582031 L 161.210938 30.226563 L 161.210938 34.554688 L 166.144531 38.269531 L 166.144531 43.632813 L 166.121094 43.667969 L 156.859375 36.71875 L 156.859375 31.21875 L 151.320313 27.046875 L 152.882813 24.957031 L 145.054688 19.097656 L 147.476563 17.777344 L 154.402344 22.964844 L 152.84375 25.050781 L 157.855469 28.804688 L 159.46875 26.648438 L 154.472656 22.90625 L 156.03125 20.824219 L 150.074219 16.363281 L 150.113281 16.339844 L 150.113281 13.257813 L 157.550781 18.828125 L 155.992188 20.910156 L 160.03125 23.9375 L 161.648438 21.785156 L 157.621094 18.769531 L 159.179688 16.6875 L 150.113281 9.894531 L 150.113281 6.761719 L 160.699219 14.6875 L 159.140625 16.773438 L 162.171875 19.042969 L 163.785156 16.886719 L 160.769531 14.632813 L 162.328125 12.550781 L 150.113281 3.402344 L 150.113281 -0.0859375 L 147.425781 -0.0859375 L 147.425781 2.828125 L 143.191406 3.59375 L 143.671875 6.246094 L 147.425781 5.566406 L 147.425781 14.742188 L 140.179688 18.691406 L 136.847656 16.191406 L 135.230469 18.34375 L 137.585938 20.105469 L 133.246094 22.472656 L 125.089844 18.445313 L 123.054688 12.484375 L 119.730469 12.484375 L 119.730469 7.371094 L 61.296875 7.371094 L 61.296875 12.484375 L 57.972656 12.484375 L 55.933594 18.445313 L 47.78125 22.472656 L 43.445313 20.105469 L 45.796875 18.34375 L 44.179688 16.191406 L 40.847656 18.691406 L 33.597656 14.742188 L 33.597656 5.566406 L 37.355469 6.246094 L 37.835938 3.59375 L 33.597656 2.828125 L 33.597656 -0.0859375 L 30.910156 -0.0859375 L 30.910156 3.402344 L 18.695313 12.550781 L 20.253906 14.632813 L 17.238281 16.886719 L 18.855469 19.042969 L 21.886719 16.773438 L 20.328125 14.6875 L 30.910156 6.761719 L 30.910156 9.894531 L 21.84375 16.6875 L 23.40625 18.769531 L 19.378906 21.785156 L 20.992188 23.9375 L 25.035156 20.910156 L 23.472656 18.828125 L 30.910156 13.257813 L 30.910156 16.339844 L 30.953125 16.363281 L 24.992188 20.824219 L 26.550781 22.90625 L 21.554688 26.648438 L 23.167969 28.804688 L 28.183594 25.050781 L 26.621094 22.964844 L 33.546875 17.777344 L 35.964844 19.097656 L 28.140625 24.957031 L 29.707031 27.046875 L 24.167969 31.21875 L 24.167969 36.71875 L 14.902344 43.667969 L 14.878906 43.632813 L 14.878906 38.269531 L 19.816406 34.554688 L 19.816406 30.226563 L 13.984375 22.582031 L 6.539063 28.164063 L 6.539063 30.351563 L 10.257813 35.230469 L 14.546875 32.019531 L 12.933594 29.867188 L 10.78125 31.480469 L 9.261719 29.484375 L 13.464844 26.335938 L 17.128906 31.136719 L 17.128906 33.210938 L 12.1875 36.925781 L 12.1875 44.546875 L 14.382813 47.421875 L 19.148438 43.847656 L 19.148438 52.675781 L 14.355469 52.675781 L 10.113281 58.671875 L 17.777344 74.109375 L 31.628906 74.109375 L 31.632813 71.398438 L 28.382813 64.8125 L 24.5625 64.8125 L 23.066406 61.796875 L 31.628906 61.796875 L 31.628906 47.957031 L 34.464844 45.828125 L 45.386719 51.414063 L 45.386719 58.847656 L 42.785156 62.519531 L 45.261719 67.503906 L 49.078125 67.503906 L 51.011719 71.421875 L 41.8125 71.421875 L 37.085938 61.890625 L 39.410156 58.597656 L 39.410156 52.675781 L 34.296875 52.675781 L 34.296875 55.367188 L 36.71875 55.367188 L 36.71875 57.746094 L 33.964844 61.648438 L 40.140625 74.109375 L 53.996094 74.109375 L 54.003906 71.398438 L 50.746094 64.8125 L 46.929688 64.8125 L 45.910156 62.765625 L 48.078125 59.703125 L 48.078125 49.769531 L 36.859375 44.03125 L 41.425781 40.609375 L 41.425781 43.953125 L 57.460938 43.953125 L 61.296875 42.828125 L 61.296875 59.65625 L 90.511719 70.875 L 119.730469 59.65625 L 119.730469 45.46875 L 123.714844 46.636719 L 139.597656 43.15625 L 139.597656 40.609375 L 144.164063 44.03125 L 132.949219 49.769531 L 132.949219 59.703125 L 135.113281 62.765625 L 134.09375 64.8125 L 130.277344 64.8125 L 127.023438 71.398438 L 127.03125 74.109375 L 140.882813 74.109375 L 147.066406 61.648438 L 144.304688 57.746094 L 144.304688 55.367188 L 146.730469 55.367188 L 146.730469 52.675781 L 141.613281 52.675781 L 141.613281 58.597656 L 143.941406 61.890625 L 139.214844 71.421875 L 130.011719 71.421875 L 131.949219 67.503906 L 135.765625 67.503906 L 138.238281 62.519531 L 135.640625 58.847656 L 135.640625 51.414063 L 146.558594 45.828125 L 149.398438 47.957031 L 149.398438 61.796875 L 157.964844 61.796875 L 156.464844 64.8125 L 152.644531 64.8125 L 149.390625 71.398438 L 149.398438 74.109375 L 163.253906 74.109375 L 170.910156 58.671875 L 166.671875 52.675781 L 161.878906 52.675781 L 161.878906 43.847656 L 166.644531 47.421875 L 168.839844 44.546875 L 168.839844 36.925781 L 163.898438 33.210938 L 163.898438 31.136719 L 167.5625 26.335938 L 171.761719 29.484375 L 170.242188 31.480469 Z M 121.128906 15.175781 L 122.90625 20.367188 L 130.390625 24.0625 L 130.390625 30.34375 L 122.71875 24.585938 L 119.730469 24.585938 L 119.730469 15.175781 Z M 130.257813 33.609375 L 124.390625 36.371094 L 123.003906 32.316406 L 119.730469 32.316406 L 119.730469 27.269531 L 121.820313 27.269531 Z M 61.296875 29.675781 L 58.023438 29.675781 L 56.507813 34.089844 L 51.160156 33.3125 L 59.207031 27.269531 L 61.296875 27.269531 Z M 50.632813 33.183594 L 50.671875 33.238281 L 50.632813 33.238281 Z M 58.121094 20.367188 L 59.894531 15.175781 L 61.296875 15.175781 L 61.296875 24.585938 L 58.308594 24.585938 L 50.632813 30.34375 L 50.632813 24.0625 Z M 159.1875 52.675781 L 156.527344 52.675781 L 156.527344 55.367188 L 165.277344 55.367188 L 167.785156 58.917969 L 161.585938 71.421875 L 152.382813 71.421875 L 154.316406 67.503906 L 158.132813 67.503906 L 162.300781 59.105469 L 152.09375 59.105469 L 152.09375 46.609375 L 140.398438 37.84375 L 142.984375 34.449219 L 140.84375 32.816406 L 136.910156 37.984375 L 136.910156 40.992188 L 123.808594 43.863281 L 119.730469 42.664063 L 119.730469 40.414063 L 117.039063 40.414063 L 117.039063 57.804688 L 90.511719 67.992188 L 63.984375 57.804688 L 63.984375 37.761719 L 61.296875 37.761719 L 61.296875 40.023438 L 57.070313 41.257813 L 44.117188 41.257813 L 44.117188 37.984375 L 40.183594 32.816406 L 38.042969 34.449219 L 40.628906 37.84375 L 28.929688 46.609375 L 28.929688 59.105469 L 18.722656 59.105469 L 22.890625 67.503906 L 26.710938 67.503906 L 28.640625 71.421875 L 19.441406 71.421875 L 13.238281 58.917969 L 15.746094 55.367188 L 24.503906 55.367188 L 24.503906 52.675781 L 21.839844 52.675781 L 21.839844 41.832031 L 26.859375 38.0625 L 26.859375 32.5625 L 32.195313 28.542969 L 30.628906 26.464844 L 38.566406 20.515625 L 47.941406 25.621094 L 47.941406 35.566406 L 58.332031 37.074219 L 59.941406 32.367188 L 63.984375 32.367188 L 63.984375 10.0625 L 117.039063 10.0625 L 117.039063 35.011719 L 121.085938 35.011719 L 122.820313 40.085938 L 133.085938 35.253906 L 133.085938 25.621094 L 142.464844 20.515625 L 150.394531 26.464844 L 148.835938 28.542969 L 154.171875 32.5625 L 154.171875 38.0625 L 159.1875 41.832031 Z M 159.1875 52.675781 "/>
<path style=" stroke:none;fill-rule:evenodd;fill:rgb(0%,19.993591%,34.104919%);fill-opacity:1;" d="M 80.8125 24.40625 C 80.542969 24.195313 80.214844 24.09375 79.820313 24.09375 L 77.054688 24.09375 L 77.054688 27.667969 L 79.820313 27.667969 C 80.175781 27.667969 80.503906 27.589844 80.789063 27.433594 C 81.082031 27.273438 81.21875 27.011719 81.21875 26.636719 L 81.21875 25.304688 C 81.21875 24.914063 81.089844 24.613281 80.8125 24.40625 Z M 80.8125 24.40625 "/>
<path style=" stroke:none;fill-rule:evenodd;fill:rgb(0%,19.993591%,34.104919%);fill-opacity:1;" d="M 66.613281 12.691406 L 66.613281 55.996094 L 90.511719 65.179688 L 114.414063 55.996094 L 114.414063 12.691406 Z M 83.011719 48.898438 C 82.640625 49.109375 82.289063 49.304688 81.960938 49.480469 C 81.628906 49.652344 81.296875 49.804688 80.96875 49.925781 C 80.648438 50.050781 80.304688 50.140625 79.957031 50.203125 C 79.601563 50.261719 79.210938 50.292969 78.78125 50.292969 C 78.140625 50.292969 77.546875 50.21875 76.996094 50.070313 C 76.445313 49.914063 75.964844 49.6875 75.5625 49.386719 C 75.15625 49.082031 74.839844 48.695313 74.609375 48.230469 C 74.378906 47.765625 74.261719 47.210938 74.261719 46.574219 L 74.261719 42.222656 C 74.261719 41.617188 74.382813 41.078125 74.628906 40.613281 C 74.867188 40.148438 75.191406 39.761719 75.601563 39.453125 C 76.011719 39.140625 76.492188 38.90625 77.039063 38.742188 C 77.585938 38.582031 78.15625 38.496094 78.761719 38.496094 C 79.515625 38.496094 80.21875 38.609375 80.871094 38.832031 C 81.523438 39.0625 82.117188 39.425781 82.65625 39.929688 L 81.714844 41.445313 C 81.296875 41.121094 80.835938 40.859375 80.3125 40.65625 C 79.796875 40.453125 79.28125 40.351563 78.761719 40.351563 C 78.453125 40.351563 78.144531 40.390625 77.851563 40.46875 C 77.558594 40.546875 77.308594 40.664063 77.089844 40.824219 C 76.867188 40.980469 76.6875 41.179688 76.554688 41.414063 C 76.421875 41.652344 76.355469 41.917969 76.355469 42.222656 L 76.355469 46.574219 C 76.355469 46.902344 76.417969 47.195313 76.546875 47.433594 C 76.675781 47.667969 76.851563 47.859375 77.078125 48.011719 C 77.292969 48.164063 77.550781 48.277344 77.839844 48.339844 C 78.136719 48.410156 78.453125 48.441406 78.789063 48.441406 C 79.210938 48.441406 79.570313 48.414063 79.878906 48.359375 C 80.1875 48.300781 80.539063 48.167969 80.921875 47.957031 L 80.921875 45.472656 L 79.257813 45.472656 L 79.257813 43.789063 L 83.011719 43.789063 Z M 83.308594 26.636719 C 83.308594 27.113281 83.214844 27.53125 83.035156 27.886719 C 82.84375 28.246094 82.59375 28.546875 82.28125 28.789063 C 81.964844 29.03125 81.601563 29.214844 81.183594 29.339844 C 80.769531 29.460938 80.332031 29.523438 79.855469 29.523438 L 77.054688 29.523438 L 77.054688 33.699219 L 74.964844 33.699219 L 74.964844 22.242188 L 79.820313 22.242188 C 80.332031 22.242188 80.792969 22.304688 81.21875 22.433594 C 81.644531 22.5625 82.011719 22.757813 82.328125 23.015625 C 82.632813 23.273438 82.871094 23.59375 83.046875 23.976563 C 83.222656 24.355469 83.308594 24.804688 83.308594 25.304688 Z M 91.355469 51.664063 L 89.667969 51.664063 L 89.667969 21.898438 L 91.355469 21.898438 Z M 107.171875 48.769531 L 104.085938 48.378906 L 104.488281 51.472656 L 101.511719 51.472656 L 101.921875 48.40625 L 98.808594 48.769531 L 98.808594 45.808594 L 101.921875 46.226563 L 101.511719 43.125 L 104.488281 43.125 L 104.085938 46.183594 L 107.171875 45.808594 Z M 107.171875 36.710938 L 104.085938 36.320313 L 104.488281 39.414063 L 101.511719 39.414063 L 101.921875 36.34375 L 98.808594 36.710938 L 98.808594 33.75 L 101.921875 34.167969 L 101.511719 31.074219 L 104.488281 31.074219 L 104.085938 34.125 L 107.171875 33.75 Z M 107.863281 24.875 L 107.863281 27.351563 L 98.121094 27.351563 L 98.121094 24.871094 L 97.609375 20.886719 L 100.015625 22.507813 L 99.414063 24.871094 L 102.296875 24.871094 L 101.382813 22.507813 L 102.988281 19.828125 L 104.59375 22.507813 L 103.6875 24.871094 L 106.5625 24.871094 L 105.96875 22.511719 L 108.371094 20.890625 Z M 107.863281 24.875 "/>
<g clip-path="url(#clip2)" clip-rule="nonzero">
<path style=" stroke:none;fill-rule:evenodd;fill:rgb(0%,19.993591%,34.104919%);fill-opacity:1;" d="M 129.226563 130.464844 L 134.058594 130.464844 L 126.132813 119.917969 L 133.460938 111.023438 L 128.796875 111.023438 L 123.195313 118.460938 L 122.070313 118.460938 L 122.070313 111.023438 L 118.527344 111.023438 L 118.527344 130.464844 L 122.070313 130.464844 L 122.070313 121.878906 L 123.328125 121.878906 Z M 129.226563 130.464844 "/>
</g>
<g clip-path="url(#clip3)" clip-rule="nonzero">
<path style=" stroke:none;fill-rule:evenodd;fill:rgb(0%,19.993591%,34.104919%);fill-opacity:1;" d="M 37.085938 119.714844 L 44.34375 119.714844 L 44.34375 128.375 C 43.714844 128.738281 43.121094 129.066406 42.558594 129.363281 C 41.996094 129.65625 41.441406 129.910156 40.886719 130.121094 C 40.335938 130.332031 39.757813 130.488281 39.15625 130.589844 C 38.554688 130.695313 37.894531 130.75 37.167969 130.75 C 36.085938 130.75 35.078125 130.625 34.140625 130.359375 C 33.210938 130.105469 32.398438 129.71875 31.714844 129.207031 C 31.023438 128.691406 30.484375 128.039063 30.09375 127.246094 C 29.703125 126.457031 29.507813 125.519531 29.507813 124.433594 L 29.507813 117.054688 C 29.507813 116.023438 29.714844 115.109375 30.128906 114.324219 C 30.535156 113.535156 31.085938 112.878906 31.78125 112.347656 C 32.476563 111.828125 33.285156 111.429688 34.214844 111.152344 C 35.132813 110.875 36.109375 110.734375 37.140625 110.734375 C 38.417969 110.734375 39.609375 110.925781 40.714844 111.308594 C 41.816406 111.6875 42.832031 112.3125 43.746094 113.164063 L 42.144531 115.734375 C 41.441406 115.1875 40.648438 114.738281 39.773438 114.394531 C 38.894531 114.050781 38.015625 113.878906 37.140625 113.878906 C 36.605469 113.878906 36.09375 113.949219 35.597656 114.082031 C 35.101563 114.21875 34.667969 114.414063 34.296875 114.683594 C 33.925781 114.949219 33.628906 115.28125 33.394531 115.679688 C 33.164063 116.082031 33.054688 116.539063 33.054688 117.054688 L 33.054688 124.433594 C 33.054688 125.003906 33.160156 125.488281 33.382813 125.886719 C 33.601563 126.289063 33.898438 126.617188 34.269531 126.875 C 34.644531 127.128906 35.082031 127.316406 35.582031 127.429688 C 36.078125 127.546875 36.609375 127.605469 37.183594 127.605469 C 37.890625 127.605469 38.507813 127.558594 39.035156 127.460938 C 39.5625 127.363281 40.152344 127.136719 40.796875 126.773438 L 40.796875 122.570313 L 37.085938 122.570313 Z M 37.085938 119.714844 "/>
</g>
<g clip-path="url(#clip4)" clip-rule="nonzero">
<path style=" stroke:none;fill-rule:evenodd;fill:rgb(0%,19.993591%,34.104919%);fill-opacity:1;" d="M 53.953125 111.023438 C 55.035156 111.023438 56.03125 111.144531 56.9375 111.390625 C 57.84375 111.644531 58.621094 112.023438 59.265625 112.539063 C 59.914063 113.054688 60.421875 113.703125 60.78125 114.496094 C 61.144531 115.285156 61.328125 116.226563 61.328125 117.308594 L 61.328125 124.171875 C 61.328125 125.257813 61.128906 126.199219 60.722656 126.988281 C 60.328125 127.78125 59.777344 128.433594 59.085938 128.949219 C 58.386719 129.464844 57.570313 129.84375 56.636719 130.089844 C 55.707031 130.34375 54.703125 130.464844 53.636719 130.464844 L 47.515625 130.464844 L 47.515625 111.023438 Z M 57.78125 117.304688 C 57.78125 116.753906 57.6875 116.28125 57.492188 115.878906 C 57.300781 115.480469 57.039063 115.152344 56.703125 114.898438 C 56.355469 114.640625 55.953125 114.453125 55.472656 114.335938 C 55.003906 114.222656 54.488281 114.167969 53.9375 114.167969 L 51.003906 114.167969 L 51.003906 127.320313 L 53.628906 127.320313 C 54.171875 127.320313 54.703125 127.261719 55.207031 127.148438 C 55.710938 127.027344 56.148438 126.847656 56.527344 126.589844 C 56.90625 126.332031 57.214844 126.007813 57.4375 125.605469 C 57.667969 125.210938 57.78125 124.722656 57.78125 124.148438 Z M 57.78125 117.304688 "/>
</g>
<g clip-path="url(#clip5)" clip-rule="nonzero">
<path style=" stroke:none;fill-rule:evenodd;fill:rgb(0%,19.993591%,34.104919%);fill-opacity:1;" d="M 73.457031 110.878906 L 79.683594 130.464844 L 75.964844 130.464844 L 74.628906 125.859375 L 67.847656 125.859375 L 66.472656 130.464844 L 62.703125 130.464844 L 69.136719 110.878906 Z M 73.738281 123 L 71.253906 114.570313 L 68.734375 123 Z M 73.738281 123 "/>
</g>
<g clip-path="url(#clip6)" clip-rule="nonzero">
<path style=" stroke:none;fill-rule:evenodd;fill:rgb(0%,19.993591%,34.104919%);fill-opacity:1;" d="M 95.011719 111.023438 L 98.15625 111.023438 L 98.15625 130.464844 L 93.238281 130.464844 L 85.347656 115.105469 L 85.347656 130.464844 L 82.207031 130.464844 L 82.207031 111.023438 L 86.839844 111.023438 L 95.011719 126.773438 Z M 95.011719 111.023438 "/>
</g>
<g clip-path="url(#clip7)" clip-rule="nonzero">
<path style=" stroke:none;fill-rule:evenodd;fill:rgb(0%,19.993591%,34.104919%);fill-opacity:1;" d="M 109.445313 118.996094 C 110.433594 119.246094 111.320313 119.53125 112.101563 119.855469 C 112.886719 120.179688 113.546875 120.570313 114.089844 121.027344 C 114.632813 121.484375 115.046875 122.039063 115.339844 122.6875 C 115.617188 123.335938 115.761719 124.117188 115.761719 125.03125 C 115.761719 126.003906 115.570313 126.84375 115.191406 127.5625 C 114.808594 128.277344 114.296875 128.867188 113.644531 129.335938 C 113.003906 129.796875 112.242188 130.140625 111.371094 130.363281 C 110.503906 130.582031 109.597656 130.691406 108.644531 130.691406 C 107.882813 130.691406 107.128906 130.609375 106.386719 130.445313 C 105.640625 130.289063 104.941406 130.050781 104.28125 129.746094 C 103.628906 129.445313 103.015625 129.070313 102.453125 128.621094 C 101.894531 128.171875 101.421875 127.660156 101.039063 127.085938 L 103.355469 124.886719 C 103.585938 125.230469 103.890625 125.558594 104.28125 125.875 C 104.671875 126.1875 105.097656 126.472656 105.554688 126.71875 C 106.011719 126.964844 106.488281 127.167969 106.984375 127.316406 C 107.480469 127.472656 107.945313 127.546875 108.386719 127.546875 C 108.84375 127.546875 109.300781 127.503906 109.757813 127.417969 C 110.21875 127.332031 110.628906 127.191406 110.984375 127.003906 C 111.347656 126.8125 111.644531 126.554688 111.871094 126.230469 C 112.101563 125.90625 112.21875 125.507813 112.21875 125.03125 C 112.21875 124.539063 112.058594 124.125 111.746094 123.800781 C 111.433594 123.476563 111.035156 123.203125 110.558594 122.988281 C 110.089844 122.765625 109.566406 122.585938 109.015625 122.445313 C 108.464844 122.300781 107.945313 122.160156 107.472656 122.03125 C 106.574219 121.746094 105.769531 121.4375 105.054688 121.117188 C 104.34375 120.789063 103.734375 120.40625 103.238281 119.957031 C 102.746094 119.507813 102.367188 118.980469 102.113281 118.371094 C 101.851563 117.761719 101.722656 117.039063 101.722656 116.199219 C 101.722656 115.25 101.914063 114.417969 102.28125 113.726563 C 102.652344 113.027344 103.160156 112.460938 103.796875 112.023438 C 104.4375 111.585938 105.179688 111.257813 106.027344 111.054688 C 106.878906 110.839844 107.785156 110.734375 108.757813 110.734375 C 110.132813 110.734375 111.339844 110.964844 112.390625 111.421875 C 113.4375 111.878906 114.363281 112.433594 115.164063 113.082031 L 113.1875 115.710938 C 112.964844 115.503906 112.671875 115.292969 112.335938 115.082031 C 111.988281 114.871094 111.617188 114.675781 111.21875 114.496094 C 110.816406 114.316406 110.398438 114.167969 109.972656 114.050781 C 109.546875 113.941406 109.136719 113.878906 108.757813 113.878906 C 108.316406 113.878906 107.890625 113.921875 107.472656 113.996094 C 107.054688 114.074219 106.679688 114.199219 106.355469 114.378906 C 106.035156 114.566406 105.769531 114.800781 105.570313 115.097656 C 105.371094 115.394531 105.269531 115.757813 105.269531 116.199219 C 105.269531 116.636719 105.398438 117.003906 105.65625 117.292969 C 105.914063 117.59375 106.242188 117.851563 106.640625 118.066406 C 107.046875 118.289063 107.488281 118.46875 107.984375 118.613281 C 108.484375 118.753906 108.96875 118.882813 109.445313 118.996094 Z M 109.445313 118.996094 "/>
</g>
<g clip-path="url(#clip8)" clip-rule="nonzero">
<path style=" stroke:none;fill-rule:evenodd;fill:rgb(0%,19.993591%,34.104919%);fill-opacity:1;" d="M 145.285156 110.878906 L 151.515625 130.464844 L 147.800781 130.464844 L 146.460938 125.859375 L 139.679688 125.859375 L 138.308594 130.464844 L 134.535156 130.464844 L 140.96875 110.878906 Z M 145.574219 123 L 143.089844 114.570313 L 140.566406 123 Z M 145.574219 123 "/>
</g>
<path style=" stroke:none;fill-rule:evenodd;fill:rgb(0%,19.993591%,34.104919%);fill-opacity:1;" d="M 91.03125 107.265625 L 94.515625 107.265625 L 91.828125 111.996094 L 89.757813 111.996094 L 91.03125 107.269531 Z M 91.03125 107.265625 "/>
</g>
</svg>
